<?xml version="1.0" standalone="no"?>
<!DOCTYPE svg PUBLIC "-//W3C//DTD SVG 20010904//EN"
 "http://www.w3.org/TR/2001/REC-SVG-20010904/DTD/svg10.dtd">
<svg version="1.0" xmlns="http://www.w3.org/2000/svg"
 width="3000.000000pt" height="3000.000000pt" viewBox="0 0 3000.000000 3000.000000"
 preserveAspectRatio="xMidYMid meet">

<g transform="translate(0.000000,3000.000000) scale(0.100000,-0.100000)"
fill="#000000" stroke="none">
<path d="M0 15000 l0 -15000 15000 0 15000 0 0 15000 0 15000 -15000 0 -15000
0 0 -15000z m12608 7766 c31 -11 1773 -1190 2573 -1742 l107 -74 577 858 c318
471 592 872 609 890 75 80 228 114 332 75 45 -18 1947 -1305 2002 -1356 13
-12 37 -51 55 -86 28 -58 32 -75 32 -146 -1 -69 -5 -88 -30 -136 -44 -82
-2551 -3797 -2594 -3842 -82 -87 -227 -122 -336 -80 -57 22 -1950 1309 -2003
1362 -19 19 -46 59 -60 90 -34 73 -36 183 -6 251 12 25 117 187 234 360 117
173 286 424 376 557 l164 242 -188 127 c-103 70 -208 142 -233 160 l-46 34
-1323 -1963 c-728 -1079 -1337 -1977 -1354 -1995 -51 -54 -140 -93 -216 -93
-71 -1 -110 6 -152 28 -55 27 -1924 1306 -1961 1342 -60 56 -89 123 -95 211
-3 58 0 86 15 125 18 45 3126 4668 3177 4723 29 33 101 73 155 89 52 15 129
10 189 -11z m8455 -18 c105 -59 1935 -1313 1968 -1349 62 -67 83 -121 83 -219
0 -70 -4 -93 -23 -130 -13 -25 -1043 -1556 -2289 -3403 -1245 -1847 -2263
-3359 -2261 -3361 29 -25 455 -309 464 -310 7 0 608 881 1335 1959 727 1078
1336 1975 1353 1994 18 18 59 46 92 62 49 24 73 29 131 29 39 0 90 -7 113 -15
43 -15 1929 -1296 1993 -1353 21 -19 50 -59 65 -90 24 -49 28 -69 28 -142 0
-70 -4 -93 -24 -130 -51 -97 -3174 -4717 -3212 -4751 -65 -60 -122 -82 -214
-83 -60 0 -91 5 -125 20 -25 12 -633 422 -1352 912 -719 491 -1312 893 -1317
894 -6 2 -269 -382 -586 -852 -318 -470 -589 -868 -603 -883 -15 -15 -55 -42
-90 -59 -55 -27 -75 -32 -140 -31 -48 0 -91 6 -115 16 -60 26 -1972 1333
-2003 1370 -83 98 -102 236 -48 344 33 67 6362 9453 6402 9496 66 70 141 98
248 94 64 -3 90 -8 127 -29z m-7468 -4736 c31 -11 400 -256 995 -661 520 -355
963 -659 986 -677 22 -18 55 -60 74 -96 32 -58 35 -70 34 -148 0 -65 -5 -94
-20 -126 -12 -23 -729 -1091 -1594 -2374 -1636 -2426 -1593 -2363 -1690 -2407
-54 -25 -194 -23 -247 4 -22 11 -626 419 -1341 906 -715 488 -1306 889 -1313
892 -10 4 -198 -267 -598 -861 -628 -931 -616 -916 -725 -949 -65 -20 -139
-19 -201 3 -61 22 -1965 1317 -2012 1368 -75 84 -102 210 -66 314 13 39 399
618 1297 1950 703 1042 1294 1912 1313 1932 77 80 218 112 330 74 61 -21 1951
-1308 2009 -1369 76 -79 104 -208 68 -314 -10 -29 -171 -277 -396 -611 -209
-310 -378 -565 -376 -566 43 -37 464 -314 469 -309 3 5 599 888 1324 1963 725
1075 1329 1968 1344 1983 80 87 220 119 336 79z m9585 -8102 c0 -286 3 -520 6
-520 4 0 35 27 70 60 45 41 93 74 157 104 132 63 196 77 377 83 132 4 170 2
259 -17 430 -88 721 -394 823 -865 28 -133 36 -415 14 -561 -65 -444 -308
-772 -676 -910 -129 -49 -236 -68 -385 -68 -161 -1 -256 19 -382 80 -92 44
-180 117 -246 204 l-26 35 -1 -132 0 -133 -390 0 -390 0 0 1580 0 1580 395 0
395 0 0 -520z m-16639 400 c57 -6 150 -19 207 -31 107 -21 298 -81 315 -98 10
-10 -16 -756 -29 -839 -5 -29 -8 -33 -27 -27 -358 107 -733 141 -932 84 -22
-6 -57 -28 -77 -49 -34 -33 -38 -43 -38 -87 0 -41 5 -55 28 -78 47 -48 84 -60
417 -141 343 -83 523 -169 667 -322 86 -92 141 -201 169 -337 27 -128 22 -334
-11 -465 -55 -223 -196 -410 -400 -531 -369 -219 -1051 -239 -1580 -46 -85 31
-95 37 -94 58 1 13 10 185 20 382 12 248 21 357 29 357 6 0 51 -13 99 -30 316
-107 802 -141 990 -70 94 36 135 104 102 168 -30 58 -101 86 -381 151 -206 48
-301 78 -424 136 -235 112 -380 274 -445 497 -75 261 -47 589 71 823 136 267
409 439 782 490 118 16 402 19 542 5z m12119 -1160 l0 -1110 540 0 540 0 0
-385 0 -385 -955 0 -955 0 0 1495 0 1495 415 0 415 0 0 -1110z m-10190 720 l0
-280 283 -2 282 -3 3 -372 2 -373 -285 0 -285 0 0 -330 c0 -355 5 -402 49
-473 58 -90 190 -117 405 -82 59 10 108 16 111 14 2 -2 15 -159 30 -348 20
-270 23 -346 14 -352 -25 -15 -187 -40 -337 -51 -263 -21 -480 11 -652 94
-119 58 -238 177 -297 298 -96 194 -113 321 -113 833 l0 397 -170 0 -170 0 0
375 0 375 200 0 199 0 6 33 c9 55 75 506 75 517 0 7 112 10 325 10 l325 0 0
-280z m2275 -255 c303 -68 554 -229 717 -460 100 -141 168 -304 204 -491 26
-132 24 -367 -5 -502 -98 -465 -410 -792 -866 -907 -535 -136 -1095 55 -1373
468 -93 137 -147 266 -183 440 -31 144 -31 380 0 524 52 247 144 424 309 595
174 181 398 295 672 344 101 18 428 11 525 -11z m2769 -12 c-2 -21 -13 -204
-24 -408 -11 -203 -23 -389 -26 -412 l-5 -43 -102 0 c-304 -1 -473 -95 -552
-305 -48 -128 -55 -211 -55 -707 l0 -458 -395 0 -395 0 0 1160 0 1160 388 -2
387 -3 3 -132 c1 -73 6 -133 10 -133 4 0 16 16 27 36 10 19 47 62 82 94 125
117 334 186 570 189 l91 1 -4 -37z m1849 23 c216 -42 391 -165 500 -351 l44
-74 49 76 c72 110 201 229 305 281 132 66 187 77 384 77 196 0 249 -11 385
-78 69 -33 102 -58 175 -132 125 -125 181 -234 227 -445 20 -91 21 -130 25
-902 l4 -808 -400 0 -401 0 0 610 c0 409 -4 626 -11 662 -39 185 -156 276
-342 266 -162 -9 -252 -89 -292 -260 -12 -52 -15 -169 -15 -670 l0 -608 -394
0 -395 0 -4 618 c-3 548 -6 624 -21 677 -48 165 -151 245 -315 245 -36 0 -83
-5 -103 -10 -62 -18 -130 -71 -165 -129 -61 -102 -63 -125 -63 -795 l0 -606
-395 0 -395 0 0 1160 0 1160 388 -2 387 -3 3 -132 3 -132 97 98 c84 84 110
104 192 145 52 25 124 52 160 60 87 19 290 20 383 2z m5862 -1 c147 -22 238
-50 353 -106 221 -109 357 -291 424 -567 21 -84 22 -111 25 -884 l4 -798 -406
0 -405 0 0 117 0 116 -62 -59 c-173 -165 -336 -227 -598 -228 -167 0 -244 15
-355 69 -177 86 -277 245 -291 462 -16 250 95 464 302 585 141 83 282 126 610
188 328 62 394 90 394 169 0 53 -42 95 -118 118 -91 28 -401 25 -544 -5 -125
-27 -263 -69 -366 -111 -51 -21 -74 -27 -76 -18 -2 7 -14 163 -25 347 -12 184
-24 356 -27 382 l-6 47 67 30 c142 65 370 126 551 150 117 15 438 12 549 -4z"/>
<path d="M23488 8811 c-189 -62 -288 -206 -288 -419 0 -228 116 -392 309 -436
308 -70 561 130 561 442 0 174 -93 322 -247 394 -59 28 -79 32 -172 35 -84 2
-118 -1 -163 -16z"/>
<path d="M10333 8816 c-100 -33 -187 -110 -236 -210 -38 -78 -50 -144 -45
-261 3 -94 6 -108 41 -177 45 -93 121 -166 205 -199 81 -33 223 -33 305 0 85
34 165 112 207 203 30 64 35 85 38 174 7 168 -30 277 -125 372 -76 76 -145
105 -258 109 -57 2 -106 -2 -132 -11z"/>
<path d="M21140 8156 c-41 -18 -119 -45 -173 -61 -143 -41 -201 -89 -218 -178
-17 -91 28 -166 115 -192 115 -35 213 -10 298 75 l58 58 0 166 c0 91 -1 166
-2 165 -2 -1 -37 -15 -78 -33z"/>
</g>
</svg>
